<svg xmlns="http://www.w3.org/2000/svg" viewBox="0 0 16.68 16.68"><defs><style>.cls-1{fill:#343739;}</style></defs><title>Asset 1</title><g id="Layer_2" data-name="Layer 2"><g id="_2단계" data-name="2단계"><path class="cls-1" d="M14.25,16.23.44,2.43a1.44,1.44,0,0,1,0-2,1.44,1.44,0,0,1,2,0l13.8,13.81a1.45,1.45,0,0,1,.05,2A1.43,1.43,0,0,1,14.25,16.23Z"/><path class="cls-1" d="M16.23,2.43,2.43,16.23a1.43,1.43,0,0,1-2,.05,1.44,1.44,0,0,1,0-2L14.25.44a1.44,1.44,0,0,1,2,0A1.45,1.45,0,0,1,16.23,2.43Z"/></g></g></svg>